PathFileType	4	(X/Y/Z)	C:\Users\Basilio\Documents\Thesis Gigler\squatting_fais\c3dfiles\038\SJ_pre2\markers_experimental.trc
DataRate	CameraRate	NumFrames	NumMarkers	Units	OrigDataRate	OrigDataStartFrame	OrigNumFrames
200.000000	200.000000	4	61	mm	200.000000	1390	1854
Frame#	Time	FHD			LBHD			RBHD			C7			T10			LSHO			LUUPA			LMUPA			LDUPA			LLEP			LMEP			LRAD			LUL			LRFIN			RSHO			RUPA1			RMUPA			RDUPA			RLEP			RMEP			RRAD			RUL			RUFIN			LASI			RASI			USACR			LSACR			RSACR			LTHI1			LTHI2			LTHI3			LTHI4			LLFC			LMFC			LTIB1			LTIB2			LTIB3			LTIB4			LLMAL			LMMAL			LHEE			LMT1			LMT2			LMT5			RTHI			RTHI2			RTHI3			RTHI4			RLFC			RMFC			RTIB1			RTIB2			RTIB3			RTIB4			RLMAL			RMMAL			RHEE			RMT1			RMT2			RMT5			CLAV			
		X1	Y1	Z1	X2	Y2	Z2	X3	Y3	Z3	X4	Y4	Z4	X5	Y5	Z5	X6	Y6	Z6	X7	Y7	Z7	X8	Y8	Z8	X9	Y9	Z9	X10	Y10	Z10	X11	Y11	Z11	X12	Y12	Z12	X13	Y13	Z13	X14	Y14	Z14	X15	Y15	Z15	X16	Y16	Z16	X17	Y17	Z17	X18	Y18	Z18	X19	Y19	Z19	X20	Y20	Z20	X21	Y21	Z21	X22	Y22	Z22	X23	Y23	Z23	X24	Y24	Z24	X25	Y25	Z25	X26	Y26	Z26	X27	Y27	Z27	X28	Y28	Z28	X29	Y29	Z29	X30	Y30	Z30	X31	Y31	Z31	X32	Y32	Z32	X33	Y33	Z33	X34	Y34	Z34	X35	Y35	Z35	X36	Y36	Z36	X37	Y37	Z37	X38	Y38	Z38	X39	Y39	Z39	X40	Y40	Z40	X41	Y41	Z41	X42	Y42	Z42	X43	Y43	Z43	X44	Y44	Z44	X45	Y45	Z45	X46	Y46	Z46	X47	Y47	Z47	X48	Y48	Z48	X49	Y49	Z49	X50	Y50	Z50	X51	Y51	Z51	X52	Y52	Z52	X53	Y53	Z53	X54	Y54	Z54	X55	Y55	Z55	X56	Y56	Z56	X57	Y57	Z57	X58	Y58	Z58	X59	Y59	Z59	X60	Y60	Z60	X61	Y61	Z61	

1391	6.95	-261.0061645507813	1605.97509765625	-936.8839111328127	-387.3123474121095	1490.264770507813	-983.817077636719	-366.8694458007813	1494.559692382813	-839.2937622070315	-409.0011291503907	1362.5751953125	-896.7669067382815	-467.572967529297	1081.393188476563	-878.7944946289065	-299.1875305175782	1352.561401367188	-1076.772705078125	-316.9899597167969	1180.955932617188	-1254.287963867188	-282.0765380859376	1147.768188476563	-1234.898803710938	-301.0225524902344	1118.149047851563	-1283.0546875	-292.9157409667969	1053.697509765625	-1295.872314453125	-375.1591796875001	1040.32080078125	-1294.568725585938	-360.1855773925782	841.5010986328127	-1105.264038085938	-298.9474792480469	808.6638183593752	-1129.491577148438	-346.8390502929688	844.8741455078127	-1036.901489257813	-273.2094726562501	1356.636840820313	-744.7756958007814	-252.8329467773438	1186.422729492188	-584.2903442382814	-243.9561004638672	1143.37890625	-604.6952514648439	-253.2688446044922	1127.004638671875	-548.2241210937501	-252.7281951904297	1052.666015625	-525.6967163085939	-334.0577392578126	1048.546752929688	-509.7623901367189	-337.4692382812501	830.403991699219	-665.6010131835939	-275.8958740234376	798.747985839844	-646.5226440429689	-316.2362976074219	822.8908691406252	-731.7794189453126	-356.3307495117188	873.5600585937502	-1001.785705566406	-352.1954650878907	879.1635742187502	-753.8291015625001	-512.9079589843751	946.871520996094	-874.0931396484377	-532.6938476562501	918.7196044921877	-901.3989257812502	-528.3768310546876	918.690368652344	-843.3338012695315	-297.4778442382813	630.7447509765626	-1127.434814453125	-232.2665252685547	577.9164428710939	-1146.441162109375	-191.3837890625	599.3737182617189	-1124.929077148438	-231.2697906494141	516.9601440429689	-1139.273559570313	-208.963607788086	467.6873779296876	-1139.893798828125	-186.8311614990235	452.4925537109376	-1036.0146484375	-219.3077087402344	281.2863769531251	-1077.170043945313	-291.0069885253907	263.9105224609376	-1128.4228515625	-255.8845825195313	244.9818878173829	-1106.908935546875	-291.6177673339844	176.5488433837891	-1070.706787109375	-425.632049560547	86.59220123291017	-1072.936401367188	-370.7374877929688	92.82479095458986	-1007.701232910156	-466.9496154785157	45.11221313476563	-1009.367492675781	-262.7343139648438	46.1429786682129	-1073.35986328125	-276.1266784667969	49.13050842285158	-1122.056030273438	-329.7731018066407	30.67248344421387	-1154.878784179688	-323.9430236816407	648.8970336914064	-672.5437622070314	-266.4074096679688	617.4255981445314	-658.8858032226564	-236.9405975341797	633.8301391601564	-659.0797119140626	-252.4942474365235	532.3235473632814	-672.0822143554689	-189.8793334960938	437.229461669922	-670.6080932617189	-181.3970031738282	435.9245605468751	-778.607849121094	-207.2825622558594	268.0755615234376	-705.2638549804689	-317.7396240234376	230.7653808593751	-685.1639404296876	-273.9708557128907	214.0283813476563	-692.2896728515626	-282.8920593261719	165.613265991211	-724.5529785156251	-401.8894042968751	89.97488403320314	-714.9503173828126	-358.5257873535157	88.2055130004883	-789.2509765625002	-457.4995422363282	41.92625427246094	-791.5720214843752	-250.5664672851563	46.02889633178712	-719.9517822265626	-265.7815551757813	50.77479934692384	-676.2695922851564	-319.9452819824219	34.73414611816407	-643.0245361328126	-264.4738769531251	1315.26513671875	-912.9084472656252	
1392	6.955	-260.5095520019532	1604.20703125	-936.9276123046877	-386.615692138672	1489.153442382813	-983.7578735351565	-366.7289428710938	1492.793334960938	-839.2265625000002	-408.9407653808595	1361.174438476563	-896.7258911132815	-468.5238037109376	1080.038696289063	-878.5154418945315	-299.2457885742188	1350.86767578125	-1076.733154296875	-316.4500732421876	1179.697021484375	-1254.396850585938	-282.5935058593751	1145.483032226563	-1234.216674804688	-301.2933349609376	1116.978759765625	-1282.995239257813	-293.6899108886719	1052.544799804688	-1296.378540039063	-375.8755493164063	1038.966186523438	-1295.323974609375	-362.0755615234376	840.2932128906252	-1105.863647460938	-300.6377868652344	807.1907348632815	-1130.094848632813	-348.6095275878907	843.5645751953127	-1037.568603515625	-273.0769042968751	1354.784301757813	-744.8370361328126	-251.6209716796876	1184.913940429688	-584.5302124023439	-243.7886047363282	1141.446044921875	-605.3804931640626	-252.6944732666016	1125.468627929688	-548.4869995117189	-252.6341400146485	1051.285278320313	-525.2656250000001	-334.0394592285157	1048.014526367188	-508.7133178710939	-338.9125061035157	829.6223144531252	-664.9523925781251	-277.5257873535157	797.492614746094	-645.6763916015626	-318.1267089843751	822.0277099609377	-731.6426391601564	-358.5126342773438	871.7778320312502	-1001.364624023438	-353.7991027832032	877.753601074219	-753.6633300781251	-514.5075683593751	945.8628540039065	-873.858825683594	-534.2086181640626	917.7812500000002	-901.1348266601565	-529.9522094726564	917.578796386719	-843.0512695312502	-299.2936706542969	629.7958374023439	-1127.486694335938	-233.6927947998047	577.3204956054689	-1146.65869140625	-192.6164703369141	599.1099853515626	-1125.870239257813	-231.7976074218751	516.2161254882814	-1139.522705078125	-209.5764312744141	467.825164794922	-1140.3916015625	-186.4904022216797	453.1248779296876	-1036.129638671875	-219.7142181396485	281.4430236816407	-1077.64111328125	-291.5585937500001	264.2138671875001	-1128.784545898438	-256.4998168945313	245.4359283447266	-1107.370239257813	-291.9392700195313	176.6793365478516	-1070.953857421875	-425.6958312988282	86.54940795898439	-1073.027587890625	-370.8060302734376	92.95503997802736	-1007.697082519531	-466.9888916015626	45.09255599975587	-1009.373779296875	-262.8237915039063	46.15485763549805	-1073.395629882813	-276.1820983886719	49.17313766479494	-1122.073852539063	-329.7742614746094	30.69367599487305	-1154.86181640625	-325.4055786132813	646.9264526367189	-672.7383422851564	-268.0180969238282	615.9034423828126	-658.9854125976564	-238.4142761230469	632.3620605468751	-658.5646362304689	-253.4516906738282	531.0262451171876	-672.4962158203126	-189.6695861816407	437.1500549316407	-670.2974243164064	-181.745361328125	435.9156494140626	-778.3486938476565	-207.4554138183594	267.9562072753907	-705.3338012695314	-317.8567810058594	230.6761169433594	-685.0718383789064	-274.1148376464844	213.9157867431641	-692.3815917968751	-283.0686035156251	165.5353088378907	-724.6936035156251	-401.8311157226564	89.40346527099611	-714.7494506835939	-358.7415771484376	88.10414123535158	-789.253356933594	-457.946746826172	42.0497055053711	-791.6130981445315	-250.5872039794922	46.10360336303712	-720.0113525390626	-265.8457031250001	50.7605323791504	-676.3607788085939	-320.0060424804688	34.77238082885743	-643.0067138671876	-264.6241760253907	1313.353637695313	-912.956237792969	
1393	6.96	-260.2014160156251	1602.623657226563	-936.694519042969	-386.1655883789064	1487.871215820313	-983.669616699219	-366.3255310058594	1491.525634765625	-839.285583496094	-408.6272888183595	1359.816162109375	-896.768981933594	-469.4890747070314	1079.010131835938	-878.2670898437502	-299.3543701171876	1349.346435546875	-1076.777099609375	-316.1106262207032	1178.662841796875	-1254.349731445313	-282.9465026855469	1144.150024414063	-1233.85888671875	-301.5425415039063	1115.492919921875	-1282.9150390625	-294.6263122558594	1051.265625	-1296.547485351563	-376.6713256835938	1038.214477539063	-1295.967163085938	-363.9981689453126	839.1638793945315	-1106.6181640625	-302.9004516601563	806.1297607421877	-1130.869018554688	-350.0108032226563	842.4761352539065	-1038.07177734375	-272.7919921875001	1353.444702148438	-745.0415649414064	-250.8748779296876	1183.086547851563	-585.6831665039064	-243.8963317871094	1139.672729492188	-605.8026123046876	-252.1599731445313	1124.006225585938	-548.5651855468751	-252.7143707275391	1050.358642578125	-524.9888916015626	-333.9829101562501	1047.594360351563	-507.792694091797	-340.3801269531251	828.8330688476565	-664.4193115234376	-279.1434631347657	796.7355957031252	-644.9212036132814	-319.3684082031251	821.2575683593752	-730.4174194335939	-360.3293762207032	869.909362792969	-1000.8525390625	-355.3359069824219	876.6044921875002	-753.4829101562501	-516.2377929687501	944.9321289062502	-873.4311523437502	-536.0976562500001	916.9939575195315	-900.8100585937502	-531.6894531250001	916.7612304687502	-842.823181152344	-300.8727722167969	629.2567138671876	-1127.626098632813	-235.0822448730469	577.1349487304689	-1146.8896484375	-194.1931915283204	599.1369018554689	-1126.258056640625	-233.2724609375001	516.3800659179689	-1139.682495117188	-210.2506256103516	468.1136474609376	-1140.748291015625	-185.482894897461	453.9421997070314	-1035.849243164063	-220.217025756836	281.7348327636719	-1077.809204101563	-292.1216735839844	264.3966979980469	-1128.986694335938	-257.1539001464844	245.7571716308594	-1107.4296875	-292.2779235839844	177.0098724365235	-1070.978393554688	-425.8205566406251	86.47263336181642	-1073.113037109375	-370.9042968750001	92.85150146484376	-1007.994262695313	-467.0605468750001	45.0834083557129	-1009.412231445313	-262.8292846679688	46.2129249572754	-1073.340698242188	-276.1521606445313	49.22766876220705	-1122.075927734375	-329.7502136230469	30.7008285522461	-1154.877563476563	-327.1385498046876	645.4811401367189	-672.6361083984376	-269.6243286132813	614.3013305664064	-659.1409301757814	-240.2442474365235	631.3521118164064	-657.8482055664064	-254.2404022216797	529.9349975585939	-672.6830444335939	-189.7317352294922	437.0933227539064	-670.0868530273439	-181.8726501464844	436.3413085937501	-778.3384399414065	-207.8690032958985	267.9418029785157	-705.2594604492189	-318.1448059082032	230.6306915283204	-684.8869018554689	-274.4152221679688	213.7449340820313	-692.3911132812501	-283.3276367187501	165.3868865966797	-724.7085571289064	-402.2603759765626	89.49855804443361	-714.5867919921876	-359.0088500976563	87.99337005615236	-789.1049804687502	-457.9255981445314	41.87634658813477	-791.4024658203127	-250.5720367431641	45.79753494262696	-719.7729492187501	-266.0260925292969	50.74580764770509	-676.2917480468751	-320.0998840332032	34.79506301879884	-642.9685058593751	-264.4727172851563	1311.7998046875	-913.0925292968752	
1394	6.965	-260.0432739257813	1601.465087890625	-936.7049560546877	-385.8402709960939	1486.656372070313	-983.6527099609377	-366.1866760253907	1490.052856445313	-839.247497558594	-408.5527954101564	1358.856689453125	-896.7290649414065	-470.3318481445314	1078.234619140625	-877.982116699219	-299.4926452636719	1348.125244140625	-1076.802978515625	-315.7757568359376	1177.777954101563	-1254.318481445313	-283.4296569824219	1142.685546875	-1233.624389648438	-301.8926696777344	1114.490112304688	-1282.842041015625	-295.4057617187501	1050.36376953125	-1296.754150390625	-377.6779785156251	1037.970703125	-1296.613037109375	-366.0488586425782	838.4205322265627	-1107.2724609375	-304.9202880859376	804.9392700195315	-1131.487060546875	-352.2762145996094	841.7261962890627	-1038.800903320313	-272.5259399414063	1352.154052734375	-745.1394042968751	-250.1892547607422	1181.943969726563	-586.0911254882814	-243.9445800781251	1138.36083984375	-606.3272094726564	-251.7253570556641	1122.725341796875	-549.0546875000001	-252.7667846679688	1049.849365234375	-524.9251098632814	-333.9627990722657	1047.296142578125	-506.9660034179689	-341.5435791015626	828.430847167969	-663.8428955078126	-280.6382446289063	796.097106933594	-644.4027709960939	-320.9909057617188	820.3765869140627	-730.5616455078126	-362.5156250000001	868.3339843750002	-1000.294006347656	-356.9443359375001	875.6210937500002	-753.4891967773439	-517.6109008789064	944.0899658203127	-873.2526855468752	-537.8307495117189	916.5688476562502	-900.3743896484377	-533.3822631835939	916.2928466796877	-842.5141601562502	-302.6697387695313	628.9312744140626	-1127.654052734375	-236.6711883544922	577.1521606445314	-1147.134521484375	-195.5811462402344	599.7788085937501	-1126.794555664063	-233.8988189697266	516.1342163085939	-1139.909423828125	-210.9777526855469	468.6638793945314	-1140.93896484375	-184.9287414550782	454.2882690429689	-1035.702392578125	-220.8467864990235	282.1080322265626	-1077.769653320313	-292.6793212890626	264.5888977050782	-1129.220092773438	-257.6593933105469	246.1169738769532	-1107.335083007813	-292.6184997558594	177.1857604980469	-1070.859130859375	-425.9153747558595	86.36863708496095	-1073.194458007813	-370.9468994140626	92.90069580078126	-1008.076232910156	-467.0855712890626	45.03966522216798	-1009.415649414063	-262.7834777832032	46.24370193481446	-1073.421020507813	-276.1912536621094	49.24118041992189	-1122.07470703125	-329.7444152832032	30.72268295288087	-1154.819580078125	-328.6046447753907	644.5032958984376	-672.4598388671876	-270.9009399414063	613.7326660156251	-658.6991577148439	-241.6092376708985	630.5740966796876	-657.5674438476564	-255.1234893798829	529.0247192382814	-672.7122802734376	-190.1181182861328	437.2254638671876	-669.8486938476564	-182.0146789550782	437.172821044922	-778.5144042968752	-208.3726348876954	268.1181030273438	-705.1719360351564	-318.5823059082032	230.625717163086	-684.5661010742189	-274.7936401367188	213.7408599853516	-692.3668823242189	-283.7344055175782	165.3706665039063	-724.5963745117189	-402.4109802246095	89.25117492675783	-714.3291625976564	-358.5672912597657	87.52857971191408	-788.6137695312502	-458.0685119628907	41.75889587402344	-791.240661621094	-250.8198242187501	46.11029052734376	-719.9662475585939	-265.9935607910157	50.83946609497072	-676.2098999023439	-320.1587829589844	34.75102233886719	-642.9336547851564	-264.6354675292969	1310.54052734375	-913.1893310546877	
